<?xml version="1.0" encoding="utf-8"?>
<!-- Generator: Adobe Illustrator 27.1.1, SVG Export Plug-In . SVG Version: 6.00 Build 0)  -->
<svg version="1.1" id="Capa_1" xmlns="http://www.w3.org/2000/svg" xmlns:xlink="http://www.w3.org/1999/xlink" x="0px" y="0px"
	 viewBox="0 0 200 200" style="enable-background:new 0 0 200 200;" xml:space="preserve">
<style type="text/css">
	.st0{fill:#F7F6F6;}
	.st1{fill:#C5C9CE;}
	.st2{fill:#ABB0B7;}
	.st3{fill:#B6B9C1;}
	.st4{fill:#B5B8C0;}
	.st5{fill:#FDFDFD;}
	.st6{fill:#F2F1F4;}
	.st7{fill:#DADBDD;}
	.st8{fill:#F0F0F2;}
	.st9{fill:#DEDEDF;}
	.st10{fill:#232627;}
	.st11{fill:#2C2E30;}
	.st12{fill:#B2B1B2;}
	.st13{fill:#9F9EA0;}
	.st14{fill:#58595B;}
	.st15{fill:#1A1A1C;}
	.st16{fill:#304C4E;}
	.st17{fill:#2F393D;}
	.st18{fill:#203D4D;}
	.st19{fill:#50A8BF;}
	.st20{fill:#5B5B5F;}
</style>
<g>
	<path class="st0" d="M167.4,175h-138c-3.3,0-6-2.7-6-6V31c0-3.3,2.7-6,6-6h138c3.3,0,6,2.7,6,6v138
		C173.4,172.3,170.7,175,167.4,175z"/>
	<g>
		<path class="st1" d="M142.5,82.1c0,7.5-0.3,15.1-0.4,22.6c0,0.6,0.5,1.1,0.1,1.7c-0.6-0.6-0.4-1.4-0.4-2.1c0-10.7,0-21.4,0-32.2
			c-0.3,0.6-0.2,1.3-0.7,1.6c-0.5,0.4-1.1,0.3-1.7,0.3c-0.7,0.1-1.1-0.1-1.4-0.8c-0.2-0.7-0.7-0.8-1.3-0.6c-0.7,0.2-1.1-0.1-1.1-0.8
			c0-0.4-0.1-0.7-0.6-0.5c-2.2,1.1-4-0.3-5.9-1c-1.4-0.5-1.4-0.7-1.4,0.9c0,6,0,12,0,18.1c0,1.8,0,3.6,0,5.4c-0.1,2,0.1,4.1,0,6.1
			c0,0.5,0.2,1.3-0.7,1.5c-0.6-0.7-0.4-1.5-0.4-2.3c0-9.8-0.1-19.7,0.1-29.5c0-0.6,0.1-1.2-0.1-1.8c-0.9-3.5-3.4-5.5-7.1-5.6
			c-1.3,0-2.7,0-4,0c-1,0-1.8-0.3-2.5-1c-2.2-2.2-4.4-4.4-6.6-6.6c-1.3-1.4-2.8-2-4.7-2c-3.4,0.1-6.7,0.1-10.1,0
			c-1.9,0-3.4,0.6-4.8,2c-1.6,1.6-3.2,3.2-4.8,4.8c-3.4,3.3-2.1,2.8-6.8,2.8c-0.8,0-1.6,0-2.4,0.1c-2.9,0.4-4.9,2-5.9,4.7
			c-0.1,0.3-0.2,0.6-0.4,0.8c-0.1,0.1-0.2,0.2-0.4,0.2c-1.2-0.1-2.5,0-3.7-0.2c-0.3,0-0.5,0.1-0.8,0.2c-2,0.7-3.9,2-6.2,1.4
			c-0.3-0.1-0.6,0.1-0.9,0.2c-1.7,0.6-3.3-0.3-3.8-2.1c0.1-2.8-0.1-5.6,0.1-8.3c0.4-8.3,3.7-15,10.8-19.4c3-1.8,6.2-2.9,9.7-3.2
			c5.7-0.6,11.4-0.2,17.1-0.2c10.2-0.1,20.4-0.1,30.6,0c4.6,0,9,1.3,12.9,3.8c4.4,2.8,7.2,6.8,9,11.6c1.8,6.6,1.2,13.4,1.3,20.1
			C142.5,75.8,142.5,78.9,142.5,82.1z"/>
		<path class="st2" d="M127,102.3c0.5-0.8,0.2-1.7,0.2-2.6c0.1-1.7,0-3.4,0-5.2c0.8,0,0.8,0.6,0.9,1.1c0.1,0.9,0.3,1.6,0.7,2.4
			c0.4,0.9,0.7,1.8,0.6,2.8c0,0.7,0.1,1.4,0.4,2.1c0.7,1.4,1.4,1.8,3,1.6c2-0.2,2-0.2,3,1.6c0.3,0.5,0.7,0.8,1.2,1
			c0.5,0.1,0.8,0.4,1.1,0.9c0.7,1.2,0.9,1.2,1.8,0.1c0.3-0.4,0.6-0.8,1.2-0.6c0.5,0.1,0.8,0.4,0.7,1c-0.2,4.4-2,8.2-4.6,11.6
			c-2,2.7-4.7,4.6-7.6,6.2c-2.1,0.8-4.3,1.6-6.6,2c-1.5,0.2-3,0.4-4.5,0.4c-14.7,0-29.4,0-44.1,0c-3.6,0-7-0.8-10.3-2.1
			c-4.9-2.3-8.6-5.9-11-10.7c-1.4-2.8-2.1-5.8-2.2-9c0.3-0.4-0.3-1.3,0.4-1.4c0.8-0.2,0.9,0.7,1.1,1.2c0.5,1.2,0.6,1.2,1.5,0.2
			c0.2-0.2,0.3-0.4,0.5-0.4c1.7-0.3,3.1-1.4,4.7-1.8c1.8-0.4,2.6-1.7,3.5-2.9c0.8-1.1,1.2-2.5,1.9-3.8c0.3-0.6,0.7-1.4,1.6-0.6
			c0.4,1.7,0,3.4,0.2,5.1c0.4,3.1,2.5,5.1,6.2,6c4.5,0.1,9,0,13.4,0c10.8-0.1,21.6,0,32.5,0.1c0.6,0,1.2,0,1.9-0.1
			c3.1-0.4,5.1-2.2,6-5.2C126.6,102.9,126.7,102.6,127,102.3z"/>
		<path class="st3" d="M66,97.2c-0.7,0-1,0.6-1.2,1.1c-0.6,1.3-1.3,2.7-1.9,4c-0.2,0.5-0.9,0.7-1.1,1c-0.8,1.4-2.1,1.5-3.4,1.9
			c-1.2,0.4-2.2,1.3-3.6,1.3c-0.6,0-0.8,0.6-1.1,1.1c-0.5,1-1,0.7-1.4,0c-0.2-0.4-0.4-0.9-0.5-1.4c-0.1-0.3-0.1-0.7-0.5-0.7
			c-0.5,0-0.3,0.4-0.4,0.7c0,0.2-0.1,0.3-0.2,0.5c0-0.3,0-0.5-0.1-0.8c0-12.4,0-24.8,0-37.3c0.4,0.4,0.9,0.7,1.3,1.1
			c0.7,0.5,1.4,1,2.3,0.2c0.4-0.4,1-0.1,1.5,0c1,0.1,2.1,0.5,2.7-0.7c0-0.1,0.1-0.2,0.2-0.2c1.8,0.5,3.2-1.5,5-0.7
			c0.5,0.2,0.9,0.3,1.4-0.2c0.5-0.4,0.5,0.2,0.6,0.5c0.4,0.5,0.4,1.1,0.4,1.6c0,8.4,0,16.8,0,25.2C66.4,96.2,66.5,96.8,66,97.2z"/>
		<path class="st4" d="M141.9,108.4c-0.9-1.1-1.1-1.1-1.7,0.1c-0.3,0.7-0.9,0.8-1.5,0.8c-0.6,0-0.8-0.5-0.8-1c0-0.6-0.4-1-0.9-1
			c-1,0-1.4-0.6-1.6-1.4c-0.3-1.1-1-1.5-2.1-1.2c-2.8,0.8-4-1.2-4.2-3.3c-0.1-1.5-0.3-3-1.1-4.3c-0.3-0.4-0.3-0.9-0.3-1.4
			c0-0.5,0-1-0.5-1.2c0-8,0-16,0-24.1c0-0.3,0-0.6,0.1-0.9c0.2-0.6,0.5-1,1.1-0.3c0.6,0.7,1.3,1,2.2,1.1c0.2,0,0.5,0,0.6,0.2
			c1.3,1.5,2.6,0.8,3.9,0.1c0.3-0.2,0.6-0.3,0.9-0.1c0.3,0.2,0.2,0.5,0,0.8c-0.3,0.3-0.4,0.8,0,1.1c0.4,0.3,0.6-0.1,0.9-0.3
			c0.7-0.6,1-0.2,1.3,0.5c0.2,0.4-0.2,1.4,0.7,1.1c0.8-0.2,2.4,0.6,2.3-1.4c0-0.4,0.1-1.2,1-1.4c0,11.9,0,23.7,0,35.5
			C142.1,107,142.4,107.8,141.9,108.4z"/>
		<path class="st5" d="M66.3,68.8c0.7-3.6,3.5-6,7.3-6.1c0.1,0,0.2,0,0.3,0c3.7,0.7,6.5-0.7,8.8-3.6c1.2-1.6,2.8-2.9,4.2-4.3
			C88,53.7,89.4,53,91,53c3.7,0,7.4,0,11.2,0c1.6,0,2.9,0.6,4,1.7c2.3,2.4,4.7,4.7,7,7.1c0.6,0.7,1.3,0.9,2.2,0.9c2,0,4-0.2,6,0.2
			c2.5,0.5,4.8,2.8,5.3,5.3c0.3,1.9,0,3.9-0.1,5.8c-0.1,1.4-1.3,1.9-2.3,2.5c-0.5,0.3-1,0-1.2-0.5c-0.5-0.8-1.2-1.1-2.1-1.2
			c-1.5-0.2-2.5-1.1-3.6-2c-1.4-1.1-3.1-1.9-4.7-2.8c-0.3-0.2-0.7,0.1-1,0.2c-1.3-0.1-1.9-1.3-2.7-1.9c-2.6-2.1-5.5-3.4-8.8-4
			c-0.3-0.1-0.6-0.2-0.9-0.3c-0.2-0.1-0.4-0.2-0.5-0.3c-1.4-0.2-2.9-0.2-4.3,0.1C93.7,64,93,64,92.2,64.2c-3.9,1-7.3,2.8-10.1,5.8
			c-0.4,0.5-0.8,0.9-1.5,1.1c-1.1,0-1.9,0.5-2.7,1.2c-1,0.9-2,1.9-3.4,2.2c-0.4,0.1-0.7,0.3-1,0.6c-1.2,1.2-2.8,1.7-4.1,2.7
			c-1.2,0.9-2.9-0.2-3.3-2.1C66.3,73.4,66,71.1,66.3,68.8z"/>
		<path class="st6" d="M111.6,70.1c0.8-0.9,1.7-0.8,2.9,0.5c0.7,0.7,1.3,1.2,2.2,1.1c0.4,0,0.7,0.3,0.9,0.6c0.9,1.8,2.5,2.1,4.2,2.3
			c0.7,0.1,1.1,0.3,1.3,1c0.2,0.6,0.4,1,1.4,0.5c2.4-1.3,1.7-3.5,2.1-5.4c0.2-0.8,0-1.6,0-2.4c0.5,0.6,0.3,1.4,0.3,2.1
			c0,10.7,0,21.4,0,32c-0.7,3.8-2.9,6.1-6.1,6.4c-1.9,0.3-3.9,0.1-5.8,0.1c-1.8,0-3.5,0-5.3,0c-0.6,0-1.1-0.1-1.3-0.7
			c-0.2-0.5,0.3-0.8,0.5-1.1c2.9-4,6-7.9,6.7-13c0.1-1,0.2-1.9-0.7-2.5c0.3-2,1-3.8,1.3-5.8c0.3-1.4,0.4-2.8-0.1-4.3
			c-0.5-2.5-1.1-5-2.3-7.3c-0.6-1-1.3-1.9-1.9-2.9C111.8,70.9,111.4,70.6,111.6,70.1z"/>
		<path class="st7" d="M66.3,68.8c0,2.5,0,5,0,7.5c0.3,0.8,0.5,1.6,0.4,2.5c0,7.3,0,14.7,0,22c0,0.7,0.1,1.5-0.4,2.1
			c-0.6-1.3-0.1-2.8-0.3-4.1c0-0.5,0-1,0-1.4c0-9.5,0-19,0-28.5C66.1,68.8,66.2,68.8,66.3,68.8z"/>
		<path class="st8" d="M66.3,102.8c0-8.9,0-17.7,0-26.6c0.6,0.5,0.7,1.5,1.9,1.5c0.7,0,1.2,0.1,1.6-0.7c0.1-0.2,0.3-0.4,0.5-0.4
			c1.6,0,2.3-1.4,3.5-2.1c0.9-0.5,2-0.5,2.9-1.4c0.7-0.6,1.2-1.4,2-1.8c0.7-0.4,1.2-0.6,2-0.4c0.4,0.6-0.1,1-0.4,1.4
			c-2,2.8-3.1,6-3.5,9.5c0,1.1,0,2.2,0,3.3c0.3,2,0.6,4,1.4,5.8c0.2,0.4,0.4,0.8,0.3,1.3c-0.5,0.6-0.5,1.2-0.3,2
			c0.4,1.6,0.8,3.2,1.1,4.8c0.3,1.3,1.2,2.3,2.1,3.3c1.1,1.3,2.1,2.6,3,4.1c1,1.5,0.5,2.5-1.4,2.5c-3.6,0-7.3,0.2-10.9-0.1
			c-2.8-0.4-4.5-2.2-5.7-4.6C66.2,103.7,66.1,103.3,66.3,102.8z"/>
		<path class="st9" d="M72.2,108.7c3.5,0,7,0,10.5,0c0.8,0,1.5-0.1,1.9-0.7c0.4-0.7-0.3-1.3-0.7-1.9c-1.5-2-3.2-3.8-4.5-6
			c-0.8-1.3-0.9-3.1-1.3-4.7c-0.1-0.7-0.4-1.3-0.5-2c-0.1-0.6-0.2-1.2,0.8-1.3c0.6,0,0.6,0.5,0.9,0.9c2.5,3.9,5.7,7.2,10.1,8.9
			c7.9,3,14.9,1.3,21.1-4.2c1.6-1.4,2.8-3.1,3.7-5c0.3-0.5,0.4-1.1,1-1.4c0.8,0,1.1,0.4,1,1.2c-0.3,4.4-1.9,8.3-4.8,11.7
			c-0.5,0.6-1,1.1-1.1,1.9c-0.1,1-1.2,1.1-1.7,1.8c0.6,0.8,1.4,0.8,2.2,0.8c3.4,0,6.7,0,10.1,0c-0.4,0.4-0.9,0.2-1.4,0.2
			c-15.3,0-30.6,0-46,0C73.1,108.9,72.6,109.1,72.2,108.7z"/>
		<path class="st10" d="M115.1,91.4c-2.8,6.5-7.8,10.4-14.6,11.9c-4.3,1-8.5,0.4-12.5-1.5c-3-1.5-5.6-3.5-7.5-6.3
			c-0.8-1.1-1.6-2.1-2.1-3.3c-0.9-1.9-1.4-3.9-1.8-5.9c-0.1-0.4-0.1-0.7,0-1c0.1-1.2,0.1-2.5,0-3.7c0.4-3.6,1.6-6.9,3.8-9.9
			c0.2-0.2,0.4-0.4,0.5-0.8c1.8-1.7,3.5-3.6,5.7-4.8c1.8-1,3.7-1.8,5.7-2.1c0.5-0.2,0.9-0.2,1.4,0c-0.2,0.7-0.9,0.8-1.4,0.9
			c-6.3,1.7-10.6,5.6-12.9,11.8c-0.8,2.1-1,4.3-0.4,6.5c0.3,1.1,0.8,1.7,2,1.7c0.4,0,0.9,0,1.3,0c0.6,0.1,0.9-0.2,0.9-0.8
			c0.1-1.5,0.3-2.9,0.8-4.3c0.2-0.6,0.3-1.2,1.2-1.2c0.5,1,0,1.9,0,2.9c0.1,5.8,3,11.2,9,12.8c5.2,1.4,10.7-1.6,13-6.8
			c1.1-2.6,1.3-5.2,1-7.9c0-0.5-0.2-1,0.1-1.4c0.8-0.1,0.9,0.6,1.1,1.1c1.6,3.6,1,7.1-1.1,10.3c-0.7,1-1.3,2-2.1,2.8
			c-4.9,5.3-14,5.6-19.2-0.6c-1-1.2-1.8-2.5-2.4-3.9c0.3,1.6,1.6,2.7,2.4,3.9c2.3,2.6,5.1,4.3,8.7,4.5c4.1,0.3,7.6-1,10.4-3.9
			c1.7-1.9,3-4,3.9-6.4c0.2-0.6,0.7-0.9,1.3-0.9c0.7,0,1.4-0.1,2.1-0.3c1.1-0.4,1.7-1.2,1.7-2.3c0.1-3.9-1-7.4-3.3-10.6
			c-2.9-4-6.9-6.2-11.7-7.2c-0.7-0.2-1.5-0.2-2.2-0.4c-0.2-0.1-0.4-0.2-0.4-0.5c0-0.2,0.2-0.3,0.4-0.3c0.6,0,1.2-0.1,1.7,0.2
			c2.5,0.3,4.9,1.1,7.2,2.4c1.9,1.1,3.5,2.6,5.1,4c2.7,3.2,4.5,6.9,4.8,11.2c0.7,1.5,0.3,3,0.2,4.6c-0.4,1.4-0.4,3-1.1,4.4
			C115.4,90.6,115.2,91,115.1,91.4z"/>
		<path class="st11" d="M105.7,92.2c1.2-1.1,1.8-2.7,2.8-4c2-2.8,1.3-8.2-0.4-10.1c-0.5-0.2-0.7-0.6-1-1.1
			c-2.5-3.9-6.1-5.9-10.7-5.9c-4,0-7.3,1.8-9.8,5c-0.6,0.8-0.9,1.8-1.7,2.5c-1,0.8-1,2-1.3,3.1c-0.2,0.9-0.5,1.9-0.3,2.9
			c0.1,0.7-0.2,0.9-0.8,0.7c-0.1,0-0.2,0-0.3,0c-1.3-0.2-3.1,0.6-3.6-1.3c-0.4-1.3-0.7-2.7-0.5-4.1c0.5-4.3,2.5-7.9,5.6-10.8
			c2.5-2.4,5.4-4,8.8-4.6c0.2,0,0.5-0.2,0.8-0.3c-0.4-0.4-0.8-0.1-1.2-0.2c0.6-0.5,1.5-0.1,2.1-0.5c1.6-0.2,3.2-0.2,4.8,0
			c0.1,0.1,0.2,0.2,0.3,0.3c-0.6,0-1.2,0-1.8,0c3.5,0.4,6.7,1.6,9.6,3.4c4.2,2.7,6.6,6.6,7.8,11.4c0.3,1.4,0.1,2.8,0.3,4.2
			c0.1,1.6-1.9,3-3.9,2.7c-1.1-0.2-1.2,0.3-1.5,1c-0.8,2-1.8,3.9-3.2,5.5c-0.2,0.2-0.4,0.3-0.6,0.5
			C105.8,92.4,105.8,92.3,105.7,92.2z"/>
		<path class="st12" d="M99.1,63.4c-1.6,0-3.2,0-4.8,0C95.9,63,97.5,63,99.1,63.4z"/>
		<path class="st13" d="M116.7,85.8c-0.1-1.5,0.2-3.1-0.2-4.6c0.6,0.2,0.5,0.7,0.5,1.1C116.8,83.5,117.2,84.7,116.7,85.8z"/>
		<path class="st14" d="M76.5,81.5c0.3,1.2,0.3,2.5,0,3.7C76.4,84,76.4,82.8,76.5,81.5z"/>
		<path class="st15" d="M85,78.6c1.3-3.8,5.8-7.3,9.8-7.8c4.2-0.5,7.7,0.8,10.8,3.5c1.1,1,1.9,2.3,2.5,3.7c0.5,2.4,0.6,4.9,0,7.3
			c-1.9,7.7-9.7,11.6-16.4,8.3c-4.3-2.1-5.9-5.8-7-10C84.2,82,84.9,80.3,85,78.6z"/>
		<path class="st16" d="M105.7,92.2c0.1,0.1,0.2,0.2,0.3,0.3c-2.2,2.5-5,3.7-8.2,4c-4.6,0.3-8.3-1.2-11.2-4.8
			c-0.1-0.3,0-0.3,0.3-0.2C91.4,97.2,100.5,97.7,105.7,92.2z"/>
		<path class="st11" d="M86.8,91.4c-0.1,0.1-0.2,0.2-0.3,0.2c-1-1.2-2.2-2.2-2.6-3.8c-0.1-0.3-0.4-0.7,0.1-0.9
			c0.5-0.2,0.5,0.3,0.7,0.6C85.3,88.9,85.9,90.3,86.8,91.4z"/>
		<path class="st17" d="M107,83.9c-0.1,5-3.9,9.1-9.4,10.1c-4.2,0.7-9.4-2.4-10.9-6.8c-0.3-0.9-0.5-1.9-0.8-2.8
			c0.9-0.4,1.3,0.3,1.7,0.9c0.5,0.6,0.8,1.4,1.6,1.7c0.1-1.8,0.4-3.6,0.7-5.4c0.5-2.6,3.1-4.4,5.8-4.5c0.5,0,1,0,1.5,0
			c3.7-0.2,6.7,3.3,6.2,7.1c0,0.3-0.1,0.6-0.1,0.9c0.1,0.5-0.3,1.3,0.3,1.5c0.5,0.2,0.9-0.6,1.3-1C105.7,85.2,105.8,83.9,107,83.9z"
			/>
		<path class="st11" d="M107,83.9c-1,0.5-1.2,1.6-1.9,2.3c-0.6,0.5-1.2,1.4-1.8,1.2c-0.7-0.2-0.2-1.3-0.3-1.9
			c-0.2-0.9,0.3-1.8,0.1-2.7c-0.8-3.8-2.5-5.1-6.4-5.3c-3-0.1-4.9,1.1-6.2,3.6c-0.5,0.9-0.4,1.9-0.4,2.8c0,1.1-1.2,2.2,0,3.3
			c0,0,0,0.3-0.1,0.4c-0.2,0.2-0.4,0.2-0.6,0c-0.7-0.4-1.4-0.8-1.8-1.7c-0.3-0.7-0.7-1.5-1.7-1.5c0-5.4,2.1-8.6,6.2-10.2
			C99.6,71.5,107.2,75.7,107,83.9z"/>
		<path class="st18" d="M96.6,78.9c3-0.3,4.8,2.3,4.9,4.8c0.1,2.7-2.3,4.8-5.2,4.8c-2.3,0-4.3-2.3-4.4-4.9
			C91.8,81,93.9,78.4,96.6,78.9z"/>
		<path class="st19" d="M99.6,83.5c0,1.9-1.2,3.1-3,3.1c-1.8,0-3.2-1.4-3.1-3.2c0-1.8,1.3-2.9,3.2-2.9
			C98.6,80.5,99.6,81.5,99.6,83.5z"/>
	</g>
	<g>
		<path class="st20" d="M37.4,155.1l-1,2.9h-2.6l4.2-12.4h3.4l4.4,12.4H43l-1-2.9H37.4z M41.4,152.9c-0.9-2.6-1.4-4.3-1.7-5.4h0
			c-0.3,1.2-0.9,3.2-1.6,5.4H41.4z"/>
		<path class="st20" d="M47.2,151c0-0.8,0-1.7,0-2.3h2.5c0.1,0.2,0.1,0.9,0.1,1.2c0.3-0.6,1.1-1.4,2.7-1.4c1.9,0,3.1,1.3,3.1,3.6
			v5.9H53v-5.6c0-1-0.3-1.8-1.5-1.8c-1.1,0-1.7,0.6-1.7,2.3v5.2h-2.6V151z M48.3,147.2v-0.6c0-1.5,0.7-2,1.7-2
			c1.1,0,1.9,0.8,2.4,0.8c0.3,0,0.4-0.1,0.4-0.6v-0.2h1.6v0.5c0,1.7-0.8,2.2-1.8,2.2c-1.1,0-1.8-0.7-2.4-0.7c-0.3,0-0.4,0.1-0.4,0.4
			v0.3H48.3z"/>
		<path class="st20" d="M65.5,155.5c0,0.9,0.1,2.2,0.1,2.4h-2.5c-0.1-0.2-0.1-0.7-0.1-0.9c-0.3,0.5-1,1.1-2.6,1.1
			c-2.2,0-3.2-1.5-3.2-2.9c0-2.1,1.7-3.1,4.4-3.1c0.5,0,1,0,1.3,0v-0.6c0-0.7-0.2-1.3-1.4-1.3c-1.1,0-1.3,0.5-1.4,1.1h-2.5
			c0.1-1.7,1.2-3,4-3c2.5,0,3.9,1,3.9,3.2V155.5z M63,153.7c-0.2,0-0.7,0-1.1,0c-1.6,0-2.1,0.5-2.1,1.4c0,0.7,0.4,1.2,1.3,1.2
			c1.6,0,1.8-1.1,1.8-2.4V153.7z"/>
		<path class="st20" d="M76.3,144.8v10.6c0,0.8,0,1.7,0,2.6h-2.5c-0.1-0.3-0.1-0.8-0.1-1c-0.5,0.7-1.3,1.2-2.6,1.2
			c-2.4,0-3.9-1.9-3.9-4.8c0-2.9,1.6-5,4.2-5c1.3,0,2.1,0.5,2.3,0.9v-4.5H76.3z M69.9,153.3c0,1.8,0.7,2.8,2,2.8c1.8,0,2-1.5,2-2.8
			c0-1.6-0.2-2.8-1.9-2.8C70.6,150.5,69.9,151.5,69.9,153.3z"/>
		<path class="st20" d="M78.6,144.8h2.6v2.3h-2.6V144.8z M78.6,148.6h2.6v9.3h-2.6V148.6z"/>
		<path class="st20" d="M83.5,151.1c0-0.9,0-1.7,0-2.5H86c0,0.2,0.1,1.1,0.1,1.6c0.4-1.1,1.4-1.8,3-1.9v2.5c-1.9,0-3,0.5-3,3v4.1
			h-2.6V151.1z"/>
		<path class="st20" d="M103.2,155.2c0,0.9,0,1.9,0,2.7h-2.5c0-0.2-0.1-0.7-0.1-1.1c-0.6,0.9-1.4,1.3-2.6,1.3
			c-1.9,0-3.1-1.2-3.1-3.5v-6.1h2.6v5.6c0,1,0.3,1.9,1.4,1.9c1.2,0,1.7-0.6,1.7-2.5v-5h2.6V155.2z"/>
		<path class="st20" d="M105.5,151c0-0.8,0-1.7,0-2.3h2.5c0.1,0.2,0.1,0.9,0.1,1.2c0.3-0.6,1.1-1.4,2.7-1.4c1.9,0,3.1,1.3,3.1,3.6
			v5.9h-2.6v-5.6c0-1-0.3-1.8-1.5-1.8c-1.1,0-1.7,0.6-1.7,2.3v5.2h-2.6V151z"/>
		<path class="st20" d="M123.8,155.5c0,0.9,0.1,2.2,0.1,2.4h-2.5c-0.1-0.2-0.1-0.7-0.1-0.9c-0.3,0.5-1,1.1-2.6,1.1
			c-2.2,0-3.2-1.5-3.2-2.9c0-2.1,1.7-3.1,4.4-3.1c0.5,0,1,0,1.3,0v-0.6c0-0.7-0.2-1.3-1.4-1.3c-1.1,0-1.3,0.5-1.4,1.1h-2.5
			c0.1-1.7,1.2-3,4-3c2.5,0,3.9,1,3.9,3.2V155.5z M121.3,153.7c-0.2,0-0.7,0-1.1,0c-1.6,0-2.1,0.5-2.1,1.4c0,0.7,0.4,1.2,1.3,1.2
			c1.6,0,1.8-1.1,1.8-2.4V153.7z"/>
		<path class="st20" d="M130.8,157.9v-7.4h-1.4v-1.9h1.4v-0.8c0-1.9,1-3.2,3-3.2c0.4,0,1,0,1.2,0.1v2c-0.1,0-0.3,0-0.5,0
			c-0.8,0-1,0.3-1,1.3v0.6h1.6v1.9h-1.6v7.4H130.8z"/>
		<path class="st20" d="M144.9,153.3c0,2.8-1.7,4.9-4.6,4.9c-2.9,0-4.6-2.1-4.6-4.8c0-2.9,1.7-4.9,4.7-4.9
			C143.1,148.4,144.9,150.3,144.9,153.3z M138.3,153.3c0,1.8,0.8,2.9,2,2.9c1.3,0,2-1.1,2-2.8c0-2-0.7-2.9-2-2.9
			C139.1,150.4,138.3,151.3,138.3,153.3z"/>
		<path class="st20" d="M145.7,148.6h1.4v-2.5h2.6v2.5h1.8v1.9h-1.8v4.6c0,0.7,0.2,1,1,1c0.1,0,0.4,0,0.6,0v1.8
			c-0.5,0.2-1.2,0.2-1.7,0.2c-1.8,0-2.4-1-2.4-2.6v-4.9h-1.4V148.6z"/>
		<path class="st20" d="M161.6,153.3c0,2.8-1.7,4.9-4.6,4.9c-2.9,0-4.6-2.1-4.6-4.8c0-2.9,1.7-4.9,4.7-4.9
			C159.9,148.4,161.6,150.3,161.6,153.3z M155,153.3c0,1.8,0.8,2.9,2,2.9c1.3,0,2-1.1,2-2.8c0-2-0.7-2.9-2-2.9
			C155.8,150.4,155,151.3,155,153.3z"/>
	</g>
</g>
<g>
</g>
<g>
</g>
<g>
</g>
<g>
</g>
<g>
</g>
<g>
</g>
</svg>
